G04 #@! TF.FileFunction,Copper,L1,Top,Signal*
%FSLAX46Y46*%
G04 Gerber Fmt 4.6, Leading zero omitted, Abs format (unit mm)*
G04 Created by KiCad (PCBNEW 4.0.4+dfsg1-stable) date Sat Feb  4 10:26:13 2017*
%MOMM*%
%LPD*%
G01*
G04 APERTURE LIST*
%ADD10C,0.100000*%
%ADD11O,1.727200X2.032000*%
%ADD12C,1.727200*%
%ADD13R,2.400000X2.000000*%
%ADD14R,1.000000X1.600000*%
%ADD15R,2.301240X0.500380*%
%ADD16R,2.245360X1.998980*%
%ADD17R,2.499360X1.998980*%
%ADD18R,0.900000X1.700000*%
%ADD19R,1.727200X1.625600*%
%ADD20R,1.600200X3.599180*%
%ADD21C,0.889000*%
%ADD22C,1.397000*%
%ADD23C,0.508000*%
%ADD24C,0.381000*%
%ADD25C,0.254000*%
%ADD26C,0.300000*%
G04 APERTURE END LIST*
D10*
D11*
X36817300Y-22720300D03*
D12*
X39357300Y-22720300D03*
X41897300Y-22720300D03*
X44437300Y-22720300D03*
X46977300Y-22720300D03*
X49517300Y-22720300D03*
X52057300Y-22720300D03*
X54597300Y-22720300D03*
X31864300Y-44323000D03*
X34404300Y-44323000D03*
X36944300Y-44323000D03*
X39484300Y-44323000D03*
X42024300Y-44323000D03*
X44564300Y-44323000D03*
X47104300Y-44323000D03*
D11*
X49644300Y-44323000D03*
D12*
X52184300Y-44323000D03*
X54724300Y-44323000D03*
D13*
X44640500Y-35260500D03*
X44640500Y-31160500D03*
D14*
X45238800Y-25184100D03*
X42238800Y-25184100D03*
X46975900Y-25158700D03*
X49975900Y-25158700D03*
X54979700Y-26390600D03*
X51979700Y-26390600D03*
X35608000Y-41402000D03*
X38608000Y-41402000D03*
D15*
X48326040Y-35110420D03*
X48326040Y-34310320D03*
X48326040Y-33510220D03*
X48326040Y-32710120D03*
X48326040Y-31910020D03*
D16*
X48425100Y-37960300D03*
D17*
X53924200Y-37960300D03*
X48425100Y-29060140D03*
X53924200Y-29060140D03*
D18*
X31757960Y-33197800D03*
X34657960Y-33197800D03*
X31773200Y-29641800D03*
X34673200Y-29641800D03*
X31773200Y-37084000D03*
X34673200Y-37084000D03*
D19*
X32639000Y-25273000D03*
D12*
X32639000Y-22733000D03*
D20*
X39166800Y-36017200D03*
X39166800Y-30515560D03*
D21*
X44649159Y-33449669D03*
X44048138Y-25271320D03*
X33279301Y-37042609D03*
D22*
X41269058Y-33265299D03*
X49222660Y-36567112D03*
D21*
X48392731Y-25111284D03*
X46658593Y-30859725D03*
X53530500Y-26200100D03*
D22*
X41159615Y-35930350D03*
X37152719Y-35937326D03*
D21*
X34922266Y-26572264D03*
X31735654Y-35100276D03*
X53510213Y-34782014D03*
X52214767Y-33512763D03*
X33116799Y-33165279D03*
X34667212Y-31434596D03*
D23*
X44640500Y-33458328D02*
X44649159Y-33449669D01*
X44640500Y-35260500D02*
X44640500Y-33458328D01*
X44135358Y-25184100D02*
X44048138Y-25271320D01*
X45238800Y-25184100D02*
X44135358Y-25184100D01*
X34036000Y-25273000D02*
X32639000Y-25273000D01*
X35509200Y-35318700D02*
X36115947Y-34711953D01*
X36115947Y-34711953D02*
X36115947Y-26336947D01*
X36115947Y-26336947D02*
X35052000Y-25273000D01*
X34673200Y-37084000D02*
X34673200Y-35646700D01*
X35052000Y-25273000D02*
X34036000Y-25273000D01*
X34673200Y-35646700D02*
X35001200Y-35318700D01*
X35001200Y-35318700D02*
X35509200Y-35318700D01*
X33320692Y-37084000D02*
X33279301Y-37042609D01*
X34673200Y-37084000D02*
X33320692Y-37084000D01*
X41269058Y-33265299D02*
X41269058Y-31309718D01*
X41269058Y-31309718D02*
X40474900Y-30515560D01*
X40474900Y-30515560D02*
X39166800Y-30515560D01*
X53924200Y-37960300D02*
X53924200Y-36452810D01*
X53924200Y-36452810D02*
X54648768Y-35728242D01*
X54648768Y-35728242D02*
X54648768Y-31292198D01*
X54648768Y-31292198D02*
X53924200Y-30567630D01*
X53924200Y-30567630D02*
X53924200Y-29060140D01*
X42238800Y-25184100D02*
X41230800Y-25184100D01*
X41230800Y-25184100D02*
X39166800Y-27248100D01*
X39166800Y-27248100D02*
X39166800Y-29058870D01*
X39166800Y-29058870D02*
X39166800Y-31066740D01*
X42238800Y-25184100D02*
X42238800Y-26492100D01*
X42238800Y-26492100D02*
X44806840Y-29060140D01*
X44806840Y-29060140D02*
X46667420Y-29060140D01*
X46667420Y-29060140D02*
X48425100Y-29060140D01*
X34673200Y-37084000D02*
X34673200Y-39077900D01*
X35608000Y-41402000D02*
X35608000Y-40094000D01*
X35608000Y-40094000D02*
X34673200Y-39159200D01*
X48425100Y-29060140D02*
X48425100Y-31810960D01*
X48425100Y-31810960D02*
X48334931Y-31901129D01*
X48425100Y-29060140D02*
X48425100Y-30567630D01*
D24*
X48425100Y-31810960D02*
X48326040Y-31910020D01*
D23*
X48425100Y-37960300D02*
X48425100Y-37364672D01*
X48425100Y-37364672D02*
X49222660Y-36567112D01*
X46975900Y-25158700D02*
X46975900Y-27610940D01*
X46975900Y-27610940D02*
X48425100Y-29060140D01*
X48425100Y-37960300D02*
X50182780Y-37960300D01*
X50182780Y-37960300D02*
X53924200Y-37960300D01*
X50182780Y-29060140D02*
X51315620Y-29060140D01*
X51315620Y-29060140D02*
X53924200Y-29060140D01*
X51315620Y-28362680D02*
X51315620Y-29060140D01*
X51979700Y-26390600D02*
X51979700Y-27698600D01*
X51979700Y-27698600D02*
X51315620Y-28362680D01*
X48425100Y-29060140D02*
X50182780Y-29060140D01*
X48440147Y-25158700D02*
X48392731Y-25111284D01*
X49975900Y-25158700D02*
X48440147Y-25158700D01*
X46357818Y-31160500D02*
X46658593Y-30859725D01*
X44640500Y-31160500D02*
X46357818Y-31160500D01*
X53530500Y-26200100D02*
X54789200Y-26200100D01*
X54789200Y-26200100D02*
X54979700Y-26390600D01*
X37357320Y-32491680D02*
X37357320Y-32918400D01*
X37357320Y-32491680D02*
X37357320Y-33208230D01*
X37357320Y-26014480D02*
X37357320Y-32491680D01*
X37357320Y-33208230D02*
X39166800Y-35017710D01*
X39166800Y-35017710D02*
X39166800Y-36017200D01*
X32639000Y-22733000D02*
X34075840Y-22733000D01*
X39166800Y-34526800D02*
X39166800Y-36017200D01*
X34075840Y-22733000D02*
X37357320Y-26014480D01*
D24*
X46573736Y-36479184D02*
X46796960Y-36255960D01*
D23*
X46995080Y-36057840D02*
X46796960Y-36255960D01*
D24*
X46251201Y-37053520D02*
X46573736Y-36730985D01*
D23*
X41159615Y-35930350D02*
X42691355Y-37462090D01*
X42691355Y-37462090D02*
X45842631Y-37462090D01*
X45842631Y-37462090D02*
X46251201Y-37053520D01*
D24*
X46573736Y-36730985D02*
X46573736Y-36479184D01*
D23*
X46995080Y-36057840D02*
X47378620Y-36057840D01*
X47378620Y-36057840D02*
X48317149Y-35119311D01*
X48317149Y-35119311D02*
X47964089Y-35119311D01*
X39166800Y-35466020D02*
X39631130Y-35930350D01*
X40171787Y-35930350D02*
X41159615Y-35930350D01*
X39631130Y-35930350D02*
X40171787Y-35930350D01*
X37232593Y-36017200D02*
X37152719Y-35937326D01*
X39166800Y-36017200D02*
X37232593Y-36017200D01*
X32639000Y-22733000D02*
X31202160Y-22733000D01*
X31202160Y-22733000D02*
X31028457Y-22906703D01*
X31028457Y-22906703D02*
X31028457Y-27539057D01*
X31028457Y-27539057D02*
X31773200Y-28283800D01*
X31773200Y-28283800D02*
X31773200Y-29641800D01*
D24*
X48326040Y-35110420D02*
X47515780Y-35110420D01*
D23*
X39166800Y-35466020D02*
X39166800Y-35017710D01*
X38608000Y-41402000D02*
X38608000Y-38120320D01*
X39166800Y-35466020D02*
X39166800Y-37473890D01*
X39166800Y-37473890D02*
X38608000Y-38032690D01*
X38608000Y-38032690D02*
X38608000Y-38120320D01*
X38608000Y-36576000D02*
X39166800Y-36017200D01*
X31757960Y-33197800D02*
X31757960Y-32797800D01*
X31757960Y-32797800D02*
X33250679Y-31305081D01*
X34922266Y-26572264D02*
X33250679Y-28243851D01*
X33250679Y-28243851D02*
X33250679Y-31305081D01*
X31773200Y-37084000D02*
X31773200Y-35137822D01*
X31773200Y-35137822D02*
X31735654Y-35100276D01*
D24*
X52881596Y-34782014D02*
X53510213Y-34782014D01*
X51328226Y-34310320D02*
X51799920Y-34782014D01*
X51799920Y-34782014D02*
X52881596Y-34782014D01*
X48326040Y-34310320D02*
X51328226Y-34310320D01*
D25*
X48430180Y-34206180D02*
X48411131Y-34225229D01*
D24*
X48326040Y-33510220D02*
X52212224Y-33510220D01*
X52212224Y-33510220D02*
X52214767Y-33512763D01*
D25*
X52197000Y-43688000D02*
X52197000Y-44323000D01*
D23*
X33149320Y-33197800D02*
X33116799Y-33165279D01*
X34657960Y-33197800D02*
X33149320Y-33197800D01*
X34673200Y-31428608D02*
X34667212Y-31434596D01*
X34673200Y-29641800D02*
X34673200Y-31428608D01*
D26*
G36*
X36445320Y-26392243D02*
X36445320Y-33208230D01*
X36508610Y-33526408D01*
X36514742Y-33557237D01*
X36712439Y-33853111D01*
X37452222Y-34592894D01*
X37423727Y-34581062D01*
X36884078Y-34580591D01*
X36385328Y-34786671D01*
X36003405Y-35167927D01*
X35796455Y-35666318D01*
X35795984Y-36205967D01*
X36002064Y-36704717D01*
X36383320Y-37086640D01*
X36881711Y-37293590D01*
X37421360Y-37294061D01*
X37695810Y-37180660D01*
X37695810Y-37816790D01*
X37716779Y-37928228D01*
X37696000Y-38032690D01*
X37696000Y-40085200D01*
X37640208Y-40121101D01*
X37489967Y-40340986D01*
X37437110Y-40602000D01*
X37437110Y-42202000D01*
X37482992Y-42445840D01*
X37627101Y-42669792D01*
X37846986Y-42820033D01*
X38108000Y-42872890D01*
X39009305Y-42872890D01*
X38623509Y-43032298D01*
X38213961Y-43441131D01*
X37807343Y-43033802D01*
X37248293Y-42801665D01*
X36642963Y-42801136D01*
X36083509Y-43032298D01*
X35673961Y-43441131D01*
X35267343Y-43033802D01*
X34708293Y-42801665D01*
X34102963Y-42801136D01*
X33543509Y-43032298D01*
X33133961Y-43441131D01*
X32727343Y-43033802D01*
X32168293Y-42801665D01*
X31562963Y-42801136D01*
X31213000Y-42945738D01*
X31213000Y-41670500D01*
X34450000Y-41670500D01*
X34450000Y-42332885D01*
X34550175Y-42574727D01*
X34735273Y-42759826D01*
X34977116Y-42860000D01*
X35339500Y-42860000D01*
X35504000Y-42695500D01*
X35504000Y-41506000D01*
X35712000Y-41506000D01*
X35712000Y-42695500D01*
X35876500Y-42860000D01*
X36238884Y-42860000D01*
X36480727Y-42759826D01*
X36665825Y-42574727D01*
X36766000Y-42332885D01*
X36766000Y-41670500D01*
X36601500Y-41506000D01*
X35712000Y-41506000D01*
X35504000Y-41506000D01*
X34614500Y-41506000D01*
X34450000Y-41670500D01*
X31213000Y-41670500D01*
X31213000Y-40471115D01*
X34450000Y-40471115D01*
X34450000Y-41133500D01*
X34614500Y-41298000D01*
X35504000Y-41298000D01*
X35504000Y-40108500D01*
X35712000Y-40108500D01*
X35712000Y-41298000D01*
X36601500Y-41298000D01*
X36766000Y-41133500D01*
X36766000Y-40471115D01*
X36665825Y-40229273D01*
X36480727Y-40044174D01*
X36238884Y-39944000D01*
X35876500Y-39944000D01*
X35712000Y-40108500D01*
X35504000Y-40108500D01*
X35339500Y-39944000D01*
X34977116Y-39944000D01*
X34735273Y-40044174D01*
X34550175Y-40229273D01*
X34450000Y-40471115D01*
X31213000Y-40471115D01*
X31213000Y-38582574D01*
X31323200Y-38604890D01*
X32223200Y-38604890D01*
X32467040Y-38559008D01*
X32690992Y-38414899D01*
X32841233Y-38195014D01*
X32894090Y-37934000D01*
X32894090Y-37352500D01*
X33565200Y-37352500D01*
X33565200Y-38064885D01*
X33665375Y-38306727D01*
X33850473Y-38491826D01*
X34092316Y-38592000D01*
X34404700Y-38592000D01*
X34569200Y-38427500D01*
X34569200Y-37188000D01*
X34777200Y-37188000D01*
X34777200Y-38427500D01*
X34941700Y-38592000D01*
X35254084Y-38592000D01*
X35495927Y-38491826D01*
X35681025Y-38306727D01*
X35781200Y-38064885D01*
X35781200Y-37352500D01*
X35616700Y-37188000D01*
X34777200Y-37188000D01*
X34569200Y-37188000D01*
X33729700Y-37188000D01*
X33565200Y-37352500D01*
X32894090Y-37352500D01*
X32894090Y-36234000D01*
X32869463Y-36103115D01*
X33565200Y-36103115D01*
X33565200Y-36815500D01*
X33729700Y-36980000D01*
X34569200Y-36980000D01*
X34569200Y-35740500D01*
X34777200Y-35740500D01*
X34777200Y-36980000D01*
X35616700Y-36980000D01*
X35781200Y-36815500D01*
X35781200Y-36103115D01*
X35681025Y-35861273D01*
X35495927Y-35676174D01*
X35254084Y-35576000D01*
X34941700Y-35576000D01*
X34777200Y-35740500D01*
X34569200Y-35740500D01*
X34404700Y-35576000D01*
X34092316Y-35576000D01*
X33850473Y-35676174D01*
X33665375Y-35861273D01*
X33565200Y-36103115D01*
X32869463Y-36103115D01*
X32848208Y-35990160D01*
X32704099Y-35766208D01*
X32685200Y-35753295D01*
X32685200Y-35688431D01*
X32837962Y-35320539D01*
X32838345Y-34881937D01*
X32686120Y-34513525D01*
X32825993Y-34308814D01*
X32839166Y-34243765D01*
X32896536Y-34267587D01*
X33335138Y-34267970D01*
X33560942Y-34174669D01*
X33582952Y-34291640D01*
X33727061Y-34515592D01*
X33946946Y-34665833D01*
X34207960Y-34718690D01*
X35107960Y-34718690D01*
X35351800Y-34672808D01*
X35575752Y-34528699D01*
X35725993Y-34308814D01*
X35778850Y-34047800D01*
X35778850Y-32347800D01*
X35732968Y-32103960D01*
X35641841Y-31962344D01*
X35769520Y-31654859D01*
X35769903Y-31216257D01*
X35639770Y-30901311D01*
X35741233Y-30752814D01*
X35794090Y-30491800D01*
X35794090Y-28791800D01*
X35748208Y-28547960D01*
X35604099Y-28324008D01*
X35384214Y-28173767D01*
X35123200Y-28120910D01*
X34663382Y-28120910D01*
X35109364Y-27674928D01*
X35140605Y-27674955D01*
X35545966Y-27507463D01*
X35856375Y-27197595D01*
X36024574Y-26792527D01*
X36024957Y-26353925D01*
X35857465Y-25948564D01*
X35547597Y-25638155D01*
X35142529Y-25469956D01*
X34703927Y-25469573D01*
X34298566Y-25637065D01*
X34160600Y-25774791D01*
X34160600Y-25541500D01*
X33996100Y-25377000D01*
X32743000Y-25377000D01*
X32743000Y-26579300D01*
X32907500Y-26743800D01*
X33460968Y-26743800D01*
X32605798Y-27598970D01*
X32498593Y-27759413D01*
X32418082Y-27638919D01*
X31940457Y-27161295D01*
X31940457Y-26743800D01*
X32370500Y-26743800D01*
X32535000Y-26579300D01*
X32535000Y-25377000D01*
X32515000Y-25377000D01*
X32515000Y-25169000D01*
X32535000Y-25169000D01*
X32535000Y-25149000D01*
X32743000Y-25149000D01*
X32743000Y-25169000D01*
X33996100Y-25169000D01*
X34160600Y-25004500D01*
X34160600Y-24329316D01*
X34060426Y-24087473D01*
X33875327Y-23902375D01*
X33695817Y-23828019D01*
X33788538Y-23735460D01*
X36445320Y-26392243D01*
X36445320Y-26392243D01*
G37*
X36445320Y-26392243D02*
X36445320Y-33208230D01*
X36508610Y-33526408D01*
X36514742Y-33557237D01*
X36712439Y-33853111D01*
X37452222Y-34592894D01*
X37423727Y-34581062D01*
X36884078Y-34580591D01*
X36385328Y-34786671D01*
X36003405Y-35167927D01*
X35796455Y-35666318D01*
X35795984Y-36205967D01*
X36002064Y-36704717D01*
X36383320Y-37086640D01*
X36881711Y-37293590D01*
X37421360Y-37294061D01*
X37695810Y-37180660D01*
X37695810Y-37816790D01*
X37716779Y-37928228D01*
X37696000Y-38032690D01*
X37696000Y-40085200D01*
X37640208Y-40121101D01*
X37489967Y-40340986D01*
X37437110Y-40602000D01*
X37437110Y-42202000D01*
X37482992Y-42445840D01*
X37627101Y-42669792D01*
X37846986Y-42820033D01*
X38108000Y-42872890D01*
X39009305Y-42872890D01*
X38623509Y-43032298D01*
X38213961Y-43441131D01*
X37807343Y-43033802D01*
X37248293Y-42801665D01*
X36642963Y-42801136D01*
X36083509Y-43032298D01*
X35673961Y-43441131D01*
X35267343Y-43033802D01*
X34708293Y-42801665D01*
X34102963Y-42801136D01*
X33543509Y-43032298D01*
X33133961Y-43441131D01*
X32727343Y-43033802D01*
X32168293Y-42801665D01*
X31562963Y-42801136D01*
X31213000Y-42945738D01*
X31213000Y-41670500D01*
X34450000Y-41670500D01*
X34450000Y-42332885D01*
X34550175Y-42574727D01*
X34735273Y-42759826D01*
X34977116Y-42860000D01*
X35339500Y-42860000D01*
X35504000Y-42695500D01*
X35504000Y-41506000D01*
X35712000Y-41506000D01*
X35712000Y-42695500D01*
X35876500Y-42860000D01*
X36238884Y-42860000D01*
X36480727Y-42759826D01*
X36665825Y-42574727D01*
X36766000Y-42332885D01*
X36766000Y-41670500D01*
X36601500Y-41506000D01*
X35712000Y-41506000D01*
X35504000Y-41506000D01*
X34614500Y-41506000D01*
X34450000Y-41670500D01*
X31213000Y-41670500D01*
X31213000Y-40471115D01*
X34450000Y-40471115D01*
X34450000Y-41133500D01*
X34614500Y-41298000D01*
X35504000Y-41298000D01*
X35504000Y-40108500D01*
X35712000Y-40108500D01*
X35712000Y-41298000D01*
X36601500Y-41298000D01*
X36766000Y-41133500D01*
X36766000Y-40471115D01*
X36665825Y-40229273D01*
X36480727Y-40044174D01*
X36238884Y-39944000D01*
X35876500Y-39944000D01*
X35712000Y-40108500D01*
X35504000Y-40108500D01*
X35339500Y-39944000D01*
X34977116Y-39944000D01*
X34735273Y-40044174D01*
X34550175Y-40229273D01*
X34450000Y-40471115D01*
X31213000Y-40471115D01*
X31213000Y-38582574D01*
X31323200Y-38604890D01*
X32223200Y-38604890D01*
X32467040Y-38559008D01*
X32690992Y-38414899D01*
X32841233Y-38195014D01*
X32894090Y-37934000D01*
X32894090Y-37352500D01*
X33565200Y-37352500D01*
X33565200Y-38064885D01*
X33665375Y-38306727D01*
X33850473Y-38491826D01*
X34092316Y-38592000D01*
X34404700Y-38592000D01*
X34569200Y-38427500D01*
X34569200Y-37188000D01*
X34777200Y-37188000D01*
X34777200Y-38427500D01*
X34941700Y-38592000D01*
X35254084Y-38592000D01*
X35495927Y-38491826D01*
X35681025Y-38306727D01*
X35781200Y-38064885D01*
X35781200Y-37352500D01*
X35616700Y-37188000D01*
X34777200Y-37188000D01*
X34569200Y-37188000D01*
X33729700Y-37188000D01*
X33565200Y-37352500D01*
X32894090Y-37352500D01*
X32894090Y-36234000D01*
X32869463Y-36103115D01*
X33565200Y-36103115D01*
X33565200Y-36815500D01*
X33729700Y-36980000D01*
X34569200Y-36980000D01*
X34569200Y-35740500D01*
X34777200Y-35740500D01*
X34777200Y-36980000D01*
X35616700Y-36980000D01*
X35781200Y-36815500D01*
X35781200Y-36103115D01*
X35681025Y-35861273D01*
X35495927Y-35676174D01*
X35254084Y-35576000D01*
X34941700Y-35576000D01*
X34777200Y-35740500D01*
X34569200Y-35740500D01*
X34404700Y-35576000D01*
X34092316Y-35576000D01*
X33850473Y-35676174D01*
X33665375Y-35861273D01*
X33565200Y-36103115D01*
X32869463Y-36103115D01*
X32848208Y-35990160D01*
X32704099Y-35766208D01*
X32685200Y-35753295D01*
X32685200Y-35688431D01*
X32837962Y-35320539D01*
X32838345Y-34881937D01*
X32686120Y-34513525D01*
X32825993Y-34308814D01*
X32839166Y-34243765D01*
X32896536Y-34267587D01*
X33335138Y-34267970D01*
X33560942Y-34174669D01*
X33582952Y-34291640D01*
X33727061Y-34515592D01*
X33946946Y-34665833D01*
X34207960Y-34718690D01*
X35107960Y-34718690D01*
X35351800Y-34672808D01*
X35575752Y-34528699D01*
X35725993Y-34308814D01*
X35778850Y-34047800D01*
X35778850Y-32347800D01*
X35732968Y-32103960D01*
X35641841Y-31962344D01*
X35769520Y-31654859D01*
X35769903Y-31216257D01*
X35639770Y-30901311D01*
X35741233Y-30752814D01*
X35794090Y-30491800D01*
X35794090Y-28791800D01*
X35748208Y-28547960D01*
X35604099Y-28324008D01*
X35384214Y-28173767D01*
X35123200Y-28120910D01*
X34663382Y-28120910D01*
X35109364Y-27674928D01*
X35140605Y-27674955D01*
X35545966Y-27507463D01*
X35856375Y-27197595D01*
X36024574Y-26792527D01*
X36024957Y-26353925D01*
X35857465Y-25948564D01*
X35547597Y-25638155D01*
X35142529Y-25469956D01*
X34703927Y-25469573D01*
X34298566Y-25637065D01*
X34160600Y-25774791D01*
X34160600Y-25541500D01*
X33996100Y-25377000D01*
X32743000Y-25377000D01*
X32743000Y-26579300D01*
X32907500Y-26743800D01*
X33460968Y-26743800D01*
X32605798Y-27598970D01*
X32498593Y-27759413D01*
X32418082Y-27638919D01*
X31940457Y-27161295D01*
X31940457Y-26743800D01*
X32370500Y-26743800D01*
X32535000Y-26579300D01*
X32535000Y-25377000D01*
X32515000Y-25377000D01*
X32515000Y-25169000D01*
X32535000Y-25169000D01*
X32535000Y-25149000D01*
X32743000Y-25149000D01*
X32743000Y-25169000D01*
X33996100Y-25169000D01*
X34160600Y-25004500D01*
X34160600Y-24329316D01*
X34060426Y-24087473D01*
X33875327Y-23902375D01*
X33695817Y-23828019D01*
X33788538Y-23735460D01*
X36445320Y-26392243D01*
G36*
X53734257Y-24009498D02*
X54293307Y-24241635D01*
X54898637Y-24242164D01*
X55147000Y-24139542D01*
X55147000Y-24919710D01*
X54479700Y-24919710D01*
X54235860Y-24965592D01*
X54011908Y-25109701D01*
X53960530Y-25184895D01*
X53750763Y-25097792D01*
X53312161Y-25097409D01*
X53032581Y-25212929D01*
X52852427Y-25032774D01*
X52610584Y-24932600D01*
X52248200Y-24932600D01*
X52083700Y-25097100D01*
X52083700Y-26286600D01*
X52103700Y-26286600D01*
X52103700Y-26494600D01*
X52083700Y-26494600D01*
X52083700Y-27684100D01*
X52108151Y-27708551D01*
X52016520Y-27929765D01*
X52016520Y-28791640D01*
X52181020Y-28956140D01*
X53820200Y-28956140D01*
X53820200Y-28936140D01*
X54028200Y-28936140D01*
X54028200Y-28956140D01*
X54048200Y-28956140D01*
X54048200Y-29164140D01*
X54028200Y-29164140D01*
X54028200Y-30553130D01*
X54192700Y-30717630D01*
X55147000Y-30717630D01*
X55147000Y-36302810D01*
X54192700Y-36302810D01*
X54028200Y-36467310D01*
X54028200Y-37856300D01*
X54048200Y-37856300D01*
X54048200Y-38064300D01*
X54028200Y-38064300D01*
X54028200Y-39453290D01*
X54192700Y-39617790D01*
X55147000Y-39617790D01*
X55147000Y-42850956D01*
X55028293Y-42801665D01*
X54422963Y-42801136D01*
X53863509Y-43032298D01*
X53453961Y-43441131D01*
X53047343Y-43033802D01*
X52488293Y-42801665D01*
X51882963Y-42801136D01*
X51323509Y-43032298D01*
X50949766Y-43405389D01*
X50720234Y-43061870D01*
X50226591Y-42732029D01*
X49644300Y-42616204D01*
X49062009Y-42732029D01*
X48568366Y-43061870D01*
X48338613Y-43405721D01*
X47967343Y-43033802D01*
X47408293Y-42801665D01*
X46802963Y-42801136D01*
X46243509Y-43032298D01*
X45833961Y-43441131D01*
X45427343Y-43033802D01*
X44868293Y-42801665D01*
X44262963Y-42801136D01*
X43703509Y-43032298D01*
X43293961Y-43441131D01*
X42887343Y-43033802D01*
X42328293Y-42801665D01*
X41722963Y-42801136D01*
X41163509Y-43032298D01*
X40753961Y-43441131D01*
X40347343Y-43033802D01*
X39788293Y-42801665D01*
X39391763Y-42801318D01*
X39575792Y-42682899D01*
X39726033Y-42463014D01*
X39778890Y-42202000D01*
X39778890Y-40602000D01*
X39733008Y-40358160D01*
X39588899Y-40134208D01*
X39520000Y-40087131D01*
X39520000Y-38487680D01*
X39966900Y-38487680D01*
X40210740Y-38441798D01*
X40434692Y-38297689D01*
X40584933Y-38077804D01*
X40637790Y-37816790D01*
X40637790Y-37182466D01*
X40888607Y-37286614D01*
X41226411Y-37286909D01*
X42046473Y-38106971D01*
X42178239Y-38195014D01*
X42342348Y-38304668D01*
X42691355Y-38374090D01*
X45842631Y-38374090D01*
X46191638Y-38304668D01*
X46305182Y-38228800D01*
X46644420Y-38228800D01*
X46644420Y-39090675D01*
X46744595Y-39332517D01*
X46929693Y-39517616D01*
X47171536Y-39617790D01*
X48156600Y-39617790D01*
X48321100Y-39453290D01*
X48321100Y-38064300D01*
X48529100Y-38064300D01*
X48529100Y-39453290D01*
X48693600Y-39617790D01*
X49678664Y-39617790D01*
X49920507Y-39517616D01*
X50105605Y-39332517D01*
X50205780Y-39090675D01*
X50205780Y-38228800D01*
X52016520Y-38228800D01*
X52016520Y-39090675D01*
X52116695Y-39332517D01*
X52301793Y-39517616D01*
X52543636Y-39617790D01*
X53655700Y-39617790D01*
X53820200Y-39453290D01*
X53820200Y-38064300D01*
X52181020Y-38064300D01*
X52016520Y-38228800D01*
X50205780Y-38228800D01*
X50041280Y-38064300D01*
X48529100Y-38064300D01*
X48321100Y-38064300D01*
X46808920Y-38064300D01*
X46644420Y-38228800D01*
X46305182Y-38228800D01*
X46487512Y-38106971D01*
X46773552Y-37820932D01*
X46808920Y-37856300D01*
X48321100Y-37856300D01*
X48321100Y-36467310D01*
X48529100Y-36467310D01*
X48529100Y-37856300D01*
X50041280Y-37856300D01*
X50205780Y-37691800D01*
X50205780Y-36829925D01*
X52016520Y-36829925D01*
X52016520Y-37691800D01*
X52181020Y-37856300D01*
X53820200Y-37856300D01*
X53820200Y-36467310D01*
X53655700Y-36302810D01*
X52543636Y-36302810D01*
X52301793Y-36402984D01*
X52116695Y-36588083D01*
X52016520Y-36829925D01*
X50205780Y-36829925D01*
X50105605Y-36588083D01*
X49920507Y-36402984D01*
X49678664Y-36302810D01*
X48693600Y-36302810D01*
X48529100Y-36467310D01*
X48321100Y-36467310D01*
X48290006Y-36436216D01*
X48694723Y-36031500D01*
X49476660Y-36031500D01*
X49720500Y-35985618D01*
X49816693Y-35923720D01*
X49816688Y-35929205D01*
X49984952Y-36336434D01*
X50296247Y-36648273D01*
X50703182Y-36817248D01*
X51143805Y-36817632D01*
X51551034Y-36649368D01*
X51862873Y-36338073D01*
X52031848Y-35931138D01*
X52032110Y-35630514D01*
X52799422Y-35630514D01*
X52884882Y-35716123D01*
X53289950Y-35884322D01*
X53728552Y-35884705D01*
X54133913Y-35717213D01*
X54444322Y-35407345D01*
X54612521Y-35002277D01*
X54612904Y-34563675D01*
X54445412Y-34158314D01*
X54135544Y-33847905D01*
X53730476Y-33679706D01*
X53317122Y-33679345D01*
X53317458Y-33294424D01*
X53149966Y-32889063D01*
X52840098Y-32578654D01*
X52435030Y-32410455D01*
X51996428Y-32410072D01*
X51591067Y-32577564D01*
X51506764Y-32661720D01*
X50147550Y-32661720D01*
X50147550Y-32459930D01*
X50121678Y-32322435D01*
X50134660Y-32291095D01*
X50134660Y-32178520D01*
X49974310Y-32018170D01*
X49971641Y-32014022D01*
X50061686Y-32014022D01*
X50296247Y-32248993D01*
X50703182Y-32417968D01*
X51143805Y-32418352D01*
X51551034Y-32250088D01*
X51862873Y-31938793D01*
X52031848Y-31531858D01*
X52032232Y-31091235D01*
X51863968Y-30684006D01*
X51552673Y-30372167D01*
X51145738Y-30203192D01*
X50705115Y-30202808D01*
X50297886Y-30371072D01*
X49986047Y-30682367D01*
X49817314Y-31088719D01*
X49607544Y-31001830D01*
X48594540Y-31001830D01*
X48430040Y-31166330D01*
X48430040Y-31789040D01*
X48222040Y-31789040D01*
X48222040Y-31166330D01*
X48057540Y-31001830D01*
X47760969Y-31001830D01*
X47761217Y-30717630D01*
X48156600Y-30717630D01*
X48321100Y-30553130D01*
X48321100Y-29164140D01*
X48529100Y-29164140D01*
X48529100Y-30553130D01*
X48693600Y-30717630D01*
X49805664Y-30717630D01*
X50047507Y-30617456D01*
X50232605Y-30432357D01*
X50332780Y-30190515D01*
X50332780Y-29328640D01*
X52016520Y-29328640D01*
X52016520Y-30190515D01*
X52116695Y-30432357D01*
X52301793Y-30617456D01*
X52543636Y-30717630D01*
X53655700Y-30717630D01*
X53820200Y-30553130D01*
X53820200Y-29164140D01*
X52181020Y-29164140D01*
X52016520Y-29328640D01*
X50332780Y-29328640D01*
X50168280Y-29164140D01*
X48529100Y-29164140D01*
X48321100Y-29164140D01*
X46681920Y-29164140D01*
X46517420Y-29328640D01*
X46517420Y-29757101D01*
X46440254Y-29757034D01*
X46379062Y-29782318D01*
X46321399Y-29692708D01*
X46101514Y-29542467D01*
X45840500Y-29489610D01*
X43440500Y-29489610D01*
X43196660Y-29535492D01*
X42972708Y-29679601D01*
X42822467Y-29899486D01*
X42769610Y-30160500D01*
X42769610Y-32160500D01*
X42815492Y-32404340D01*
X42959601Y-32628292D01*
X43179486Y-32778533D01*
X43440500Y-32831390D01*
X43712122Y-32831390D01*
X43546851Y-33229406D01*
X43546536Y-33589610D01*
X43440500Y-33589610D01*
X43196660Y-33635492D01*
X42972708Y-33779601D01*
X42822467Y-33999486D01*
X42769610Y-34260500D01*
X42769610Y-36250582D01*
X42516057Y-35997030D01*
X42516350Y-35661709D01*
X42310270Y-35162959D01*
X41929014Y-34781036D01*
X41430623Y-34574086D01*
X40890974Y-34573615D01*
X40637790Y-34678229D01*
X40637790Y-34217610D01*
X40591908Y-33973770D01*
X40447799Y-33749818D01*
X40227914Y-33599577D01*
X39966900Y-33546720D01*
X38985572Y-33546720D01*
X38412002Y-32973150D01*
X38898300Y-32973150D01*
X39062800Y-32808650D01*
X39062800Y-30619560D01*
X39270800Y-30619560D01*
X39270800Y-32808650D01*
X39435300Y-32973150D01*
X40097785Y-32973150D01*
X40339627Y-32872975D01*
X40524726Y-32687877D01*
X40624900Y-32446034D01*
X40624900Y-30784060D01*
X40460400Y-30619560D01*
X39270800Y-30619560D01*
X39062800Y-30619560D01*
X39042800Y-30619560D01*
X39042800Y-30411560D01*
X39062800Y-30411560D01*
X39062800Y-28222470D01*
X39270800Y-28222470D01*
X39270800Y-30411560D01*
X40460400Y-30411560D01*
X40624900Y-30247060D01*
X40624900Y-28585086D01*
X40524726Y-28343243D01*
X40339627Y-28158145D01*
X40097785Y-28057970D01*
X39435300Y-28057970D01*
X39270800Y-28222470D01*
X39062800Y-28222470D01*
X38898300Y-28057970D01*
X38269320Y-28057970D01*
X38269320Y-27929765D01*
X46517420Y-27929765D01*
X46517420Y-28791640D01*
X46681920Y-28956140D01*
X48321100Y-28956140D01*
X48321100Y-27567150D01*
X48529100Y-27567150D01*
X48529100Y-28956140D01*
X50168280Y-28956140D01*
X50332780Y-28791640D01*
X50332780Y-27929765D01*
X50232605Y-27687923D01*
X50047507Y-27502824D01*
X49805664Y-27402650D01*
X48693600Y-27402650D01*
X48529100Y-27567150D01*
X48321100Y-27567150D01*
X48156600Y-27402650D01*
X47044536Y-27402650D01*
X46802693Y-27502824D01*
X46617595Y-27687923D01*
X46517420Y-27929765D01*
X38269320Y-27929765D01*
X38269320Y-26014480D01*
X38199898Y-25665473D01*
X38180916Y-25637065D01*
X38057662Y-25452600D01*
X41080800Y-25452600D01*
X41080800Y-26114985D01*
X41180975Y-26356827D01*
X41366073Y-26541926D01*
X41607916Y-26642100D01*
X41970300Y-26642100D01*
X42134800Y-26477600D01*
X42134800Y-25288100D01*
X41245300Y-25288100D01*
X41080800Y-25452600D01*
X38057662Y-25452600D01*
X38002202Y-25369599D01*
X37019482Y-24386879D01*
X37399591Y-24311271D01*
X37893234Y-23981430D01*
X38122987Y-23637579D01*
X38494257Y-24009498D01*
X39053307Y-24241635D01*
X39658637Y-24242164D01*
X40218091Y-24011002D01*
X40627639Y-23602169D01*
X41034257Y-24009498D01*
X41160106Y-24061755D01*
X41080800Y-24253215D01*
X41080800Y-24915600D01*
X41245300Y-25080100D01*
X42134800Y-25080100D01*
X42134800Y-25060100D01*
X42342800Y-25060100D01*
X42342800Y-25080100D01*
X42362800Y-25080100D01*
X42362800Y-25288100D01*
X42342800Y-25288100D01*
X42342800Y-26477600D01*
X42507300Y-26642100D01*
X42869684Y-26642100D01*
X43111527Y-26541926D01*
X43296625Y-26356827D01*
X43377950Y-26160493D01*
X43422807Y-26205429D01*
X43827875Y-26373628D01*
X44207753Y-26373960D01*
X44257901Y-26451892D01*
X44477786Y-26602133D01*
X44738800Y-26654990D01*
X45738800Y-26654990D01*
X45982640Y-26609108D01*
X46117375Y-26522409D01*
X46345016Y-26616700D01*
X46707400Y-26616700D01*
X46871900Y-26452200D01*
X46871900Y-25262700D01*
X46851900Y-25262700D01*
X46851900Y-25054700D01*
X46871900Y-25054700D01*
X46871900Y-25034700D01*
X47079900Y-25034700D01*
X47079900Y-25054700D01*
X47099900Y-25054700D01*
X47099900Y-25262700D01*
X47079900Y-25262700D01*
X47079900Y-26452200D01*
X47244400Y-26616700D01*
X47606784Y-26616700D01*
X47848627Y-26516526D01*
X48033725Y-26331427D01*
X48095733Y-26181729D01*
X48172468Y-26213592D01*
X48611070Y-26213975D01*
X48835588Y-26121206D01*
X48850892Y-26202540D01*
X48995001Y-26426492D01*
X49214886Y-26576733D01*
X49475900Y-26629590D01*
X50475900Y-26629590D01*
X50719740Y-26583708D01*
X50858215Y-26494602D01*
X50986198Y-26494602D01*
X50821700Y-26659100D01*
X50821700Y-27321485D01*
X50921875Y-27563327D01*
X51106973Y-27748426D01*
X51348816Y-27848600D01*
X51711200Y-27848600D01*
X51875700Y-27684100D01*
X51875700Y-26494600D01*
X51855700Y-26494600D01*
X51855700Y-26286600D01*
X51875700Y-26286600D01*
X51875700Y-25097100D01*
X51711200Y-24932600D01*
X51348816Y-24932600D01*
X51146790Y-25016281D01*
X51146790Y-24358700D01*
X51100908Y-24114860D01*
X50956799Y-23890908D01*
X50736914Y-23740667D01*
X50663742Y-23725849D01*
X50787639Y-23602169D01*
X51194257Y-24009498D01*
X51753307Y-24241635D01*
X52358637Y-24242164D01*
X52918091Y-24011002D01*
X53327639Y-23602169D01*
X53734257Y-24009498D01*
X53734257Y-24009498D01*
G37*
X53734257Y-24009498D02*
X54293307Y-24241635D01*
X54898637Y-24242164D01*
X55147000Y-24139542D01*
X55147000Y-24919710D01*
X54479700Y-24919710D01*
X54235860Y-24965592D01*
X54011908Y-25109701D01*
X53960530Y-25184895D01*
X53750763Y-25097792D01*
X53312161Y-25097409D01*
X53032581Y-25212929D01*
X52852427Y-25032774D01*
X52610584Y-24932600D01*
X52248200Y-24932600D01*
X52083700Y-25097100D01*
X52083700Y-26286600D01*
X52103700Y-26286600D01*
X52103700Y-26494600D01*
X52083700Y-26494600D01*
X52083700Y-27684100D01*
X52108151Y-27708551D01*
X52016520Y-27929765D01*
X52016520Y-28791640D01*
X52181020Y-28956140D01*
X53820200Y-28956140D01*
X53820200Y-28936140D01*
X54028200Y-28936140D01*
X54028200Y-28956140D01*
X54048200Y-28956140D01*
X54048200Y-29164140D01*
X54028200Y-29164140D01*
X54028200Y-30553130D01*
X54192700Y-30717630D01*
X55147000Y-30717630D01*
X55147000Y-36302810D01*
X54192700Y-36302810D01*
X54028200Y-36467310D01*
X54028200Y-37856300D01*
X54048200Y-37856300D01*
X54048200Y-38064300D01*
X54028200Y-38064300D01*
X54028200Y-39453290D01*
X54192700Y-39617790D01*
X55147000Y-39617790D01*
X55147000Y-42850956D01*
X55028293Y-42801665D01*
X54422963Y-42801136D01*
X53863509Y-43032298D01*
X53453961Y-43441131D01*
X53047343Y-43033802D01*
X52488293Y-42801665D01*
X51882963Y-42801136D01*
X51323509Y-43032298D01*
X50949766Y-43405389D01*
X50720234Y-43061870D01*
X50226591Y-42732029D01*
X49644300Y-42616204D01*
X49062009Y-42732029D01*
X48568366Y-43061870D01*
X48338613Y-43405721D01*
X47967343Y-43033802D01*
X47408293Y-42801665D01*
X46802963Y-42801136D01*
X46243509Y-43032298D01*
X45833961Y-43441131D01*
X45427343Y-43033802D01*
X44868293Y-42801665D01*
X44262963Y-42801136D01*
X43703509Y-43032298D01*
X43293961Y-43441131D01*
X42887343Y-43033802D01*
X42328293Y-42801665D01*
X41722963Y-42801136D01*
X41163509Y-43032298D01*
X40753961Y-43441131D01*
X40347343Y-43033802D01*
X39788293Y-42801665D01*
X39391763Y-42801318D01*
X39575792Y-42682899D01*
X39726033Y-42463014D01*
X39778890Y-42202000D01*
X39778890Y-40602000D01*
X39733008Y-40358160D01*
X39588899Y-40134208D01*
X39520000Y-40087131D01*
X39520000Y-38487680D01*
X39966900Y-38487680D01*
X40210740Y-38441798D01*
X40434692Y-38297689D01*
X40584933Y-38077804D01*
X40637790Y-37816790D01*
X40637790Y-37182466D01*
X40888607Y-37286614D01*
X41226411Y-37286909D01*
X42046473Y-38106971D01*
X42178239Y-38195014D01*
X42342348Y-38304668D01*
X42691355Y-38374090D01*
X45842631Y-38374090D01*
X46191638Y-38304668D01*
X46305182Y-38228800D01*
X46644420Y-38228800D01*
X46644420Y-39090675D01*
X46744595Y-39332517D01*
X46929693Y-39517616D01*
X47171536Y-39617790D01*
X48156600Y-39617790D01*
X48321100Y-39453290D01*
X48321100Y-38064300D01*
X48529100Y-38064300D01*
X48529100Y-39453290D01*
X48693600Y-39617790D01*
X49678664Y-39617790D01*
X49920507Y-39517616D01*
X50105605Y-39332517D01*
X50205780Y-39090675D01*
X50205780Y-38228800D01*
X52016520Y-38228800D01*
X52016520Y-39090675D01*
X52116695Y-39332517D01*
X52301793Y-39517616D01*
X52543636Y-39617790D01*
X53655700Y-39617790D01*
X53820200Y-39453290D01*
X53820200Y-38064300D01*
X52181020Y-38064300D01*
X52016520Y-38228800D01*
X50205780Y-38228800D01*
X50041280Y-38064300D01*
X48529100Y-38064300D01*
X48321100Y-38064300D01*
X46808920Y-38064300D01*
X46644420Y-38228800D01*
X46305182Y-38228800D01*
X46487512Y-38106971D01*
X46773552Y-37820932D01*
X46808920Y-37856300D01*
X48321100Y-37856300D01*
X48321100Y-36467310D01*
X48529100Y-36467310D01*
X48529100Y-37856300D01*
X50041280Y-37856300D01*
X50205780Y-37691800D01*
X50205780Y-36829925D01*
X52016520Y-36829925D01*
X52016520Y-37691800D01*
X52181020Y-37856300D01*
X53820200Y-37856300D01*
X53820200Y-36467310D01*
X53655700Y-36302810D01*
X52543636Y-36302810D01*
X52301793Y-36402984D01*
X52116695Y-36588083D01*
X52016520Y-36829925D01*
X50205780Y-36829925D01*
X50105605Y-36588083D01*
X49920507Y-36402984D01*
X49678664Y-36302810D01*
X48693600Y-36302810D01*
X48529100Y-36467310D01*
X48321100Y-36467310D01*
X48290006Y-36436216D01*
X48694723Y-36031500D01*
X49476660Y-36031500D01*
X49720500Y-35985618D01*
X49816693Y-35923720D01*
X49816688Y-35929205D01*
X49984952Y-36336434D01*
X50296247Y-36648273D01*
X50703182Y-36817248D01*
X51143805Y-36817632D01*
X51551034Y-36649368D01*
X51862873Y-36338073D01*
X52031848Y-35931138D01*
X52032110Y-35630514D01*
X52799422Y-35630514D01*
X52884882Y-35716123D01*
X53289950Y-35884322D01*
X53728552Y-35884705D01*
X54133913Y-35717213D01*
X54444322Y-35407345D01*
X54612521Y-35002277D01*
X54612904Y-34563675D01*
X54445412Y-34158314D01*
X54135544Y-33847905D01*
X53730476Y-33679706D01*
X53317122Y-33679345D01*
X53317458Y-33294424D01*
X53149966Y-32889063D01*
X52840098Y-32578654D01*
X52435030Y-32410455D01*
X51996428Y-32410072D01*
X51591067Y-32577564D01*
X51506764Y-32661720D01*
X50147550Y-32661720D01*
X50147550Y-32459930D01*
X50121678Y-32322435D01*
X50134660Y-32291095D01*
X50134660Y-32178520D01*
X49974310Y-32018170D01*
X49971641Y-32014022D01*
X50061686Y-32014022D01*
X50296247Y-32248993D01*
X50703182Y-32417968D01*
X51143805Y-32418352D01*
X51551034Y-32250088D01*
X51862873Y-31938793D01*
X52031848Y-31531858D01*
X52032232Y-31091235D01*
X51863968Y-30684006D01*
X51552673Y-30372167D01*
X51145738Y-30203192D01*
X50705115Y-30202808D01*
X50297886Y-30371072D01*
X49986047Y-30682367D01*
X49817314Y-31088719D01*
X49607544Y-31001830D01*
X48594540Y-31001830D01*
X48430040Y-31166330D01*
X48430040Y-31789040D01*
X48222040Y-31789040D01*
X48222040Y-31166330D01*
X48057540Y-31001830D01*
X47760969Y-31001830D01*
X47761217Y-30717630D01*
X48156600Y-30717630D01*
X48321100Y-30553130D01*
X48321100Y-29164140D01*
X48529100Y-29164140D01*
X48529100Y-30553130D01*
X48693600Y-30717630D01*
X49805664Y-30717630D01*
X50047507Y-30617456D01*
X50232605Y-30432357D01*
X50332780Y-30190515D01*
X50332780Y-29328640D01*
X52016520Y-29328640D01*
X52016520Y-30190515D01*
X52116695Y-30432357D01*
X52301793Y-30617456D01*
X52543636Y-30717630D01*
X53655700Y-30717630D01*
X53820200Y-30553130D01*
X53820200Y-29164140D01*
X52181020Y-29164140D01*
X52016520Y-29328640D01*
X50332780Y-29328640D01*
X50168280Y-29164140D01*
X48529100Y-29164140D01*
X48321100Y-29164140D01*
X46681920Y-29164140D01*
X46517420Y-29328640D01*
X46517420Y-29757101D01*
X46440254Y-29757034D01*
X46379062Y-29782318D01*
X46321399Y-29692708D01*
X46101514Y-29542467D01*
X45840500Y-29489610D01*
X43440500Y-29489610D01*
X43196660Y-29535492D01*
X42972708Y-29679601D01*
X42822467Y-29899486D01*
X42769610Y-30160500D01*
X42769610Y-32160500D01*
X42815492Y-32404340D01*
X42959601Y-32628292D01*
X43179486Y-32778533D01*
X43440500Y-32831390D01*
X43712122Y-32831390D01*
X43546851Y-33229406D01*
X43546536Y-33589610D01*
X43440500Y-33589610D01*
X43196660Y-33635492D01*
X42972708Y-33779601D01*
X42822467Y-33999486D01*
X42769610Y-34260500D01*
X42769610Y-36250582D01*
X42516057Y-35997030D01*
X42516350Y-35661709D01*
X42310270Y-35162959D01*
X41929014Y-34781036D01*
X41430623Y-34574086D01*
X40890974Y-34573615D01*
X40637790Y-34678229D01*
X40637790Y-34217610D01*
X40591908Y-33973770D01*
X40447799Y-33749818D01*
X40227914Y-33599577D01*
X39966900Y-33546720D01*
X38985572Y-33546720D01*
X38412002Y-32973150D01*
X38898300Y-32973150D01*
X39062800Y-32808650D01*
X39062800Y-30619560D01*
X39270800Y-30619560D01*
X39270800Y-32808650D01*
X39435300Y-32973150D01*
X40097785Y-32973150D01*
X40339627Y-32872975D01*
X40524726Y-32687877D01*
X40624900Y-32446034D01*
X40624900Y-30784060D01*
X40460400Y-30619560D01*
X39270800Y-30619560D01*
X39062800Y-30619560D01*
X39042800Y-30619560D01*
X39042800Y-30411560D01*
X39062800Y-30411560D01*
X39062800Y-28222470D01*
X39270800Y-28222470D01*
X39270800Y-30411560D01*
X40460400Y-30411560D01*
X40624900Y-30247060D01*
X40624900Y-28585086D01*
X40524726Y-28343243D01*
X40339627Y-28158145D01*
X40097785Y-28057970D01*
X39435300Y-28057970D01*
X39270800Y-28222470D01*
X39062800Y-28222470D01*
X38898300Y-28057970D01*
X38269320Y-28057970D01*
X38269320Y-27929765D01*
X46517420Y-27929765D01*
X46517420Y-28791640D01*
X46681920Y-28956140D01*
X48321100Y-28956140D01*
X48321100Y-27567150D01*
X48529100Y-27567150D01*
X48529100Y-28956140D01*
X50168280Y-28956140D01*
X50332780Y-28791640D01*
X50332780Y-27929765D01*
X50232605Y-27687923D01*
X50047507Y-27502824D01*
X49805664Y-27402650D01*
X48693600Y-27402650D01*
X48529100Y-27567150D01*
X48321100Y-27567150D01*
X48156600Y-27402650D01*
X47044536Y-27402650D01*
X46802693Y-27502824D01*
X46617595Y-27687923D01*
X46517420Y-27929765D01*
X38269320Y-27929765D01*
X38269320Y-26014480D01*
X38199898Y-25665473D01*
X38180916Y-25637065D01*
X38057662Y-25452600D01*
X41080800Y-25452600D01*
X41080800Y-26114985D01*
X41180975Y-26356827D01*
X41366073Y-26541926D01*
X41607916Y-26642100D01*
X41970300Y-26642100D01*
X42134800Y-26477600D01*
X42134800Y-25288100D01*
X41245300Y-25288100D01*
X41080800Y-25452600D01*
X38057662Y-25452600D01*
X38002202Y-25369599D01*
X37019482Y-24386879D01*
X37399591Y-24311271D01*
X37893234Y-23981430D01*
X38122987Y-23637579D01*
X38494257Y-24009498D01*
X39053307Y-24241635D01*
X39658637Y-24242164D01*
X40218091Y-24011002D01*
X40627639Y-23602169D01*
X41034257Y-24009498D01*
X41160106Y-24061755D01*
X41080800Y-24253215D01*
X41080800Y-24915600D01*
X41245300Y-25080100D01*
X42134800Y-25080100D01*
X42134800Y-25060100D01*
X42342800Y-25060100D01*
X42342800Y-25080100D01*
X42362800Y-25080100D01*
X42362800Y-25288100D01*
X42342800Y-25288100D01*
X42342800Y-26477600D01*
X42507300Y-26642100D01*
X42869684Y-26642100D01*
X43111527Y-26541926D01*
X43296625Y-26356827D01*
X43377950Y-26160493D01*
X43422807Y-26205429D01*
X43827875Y-26373628D01*
X44207753Y-26373960D01*
X44257901Y-26451892D01*
X44477786Y-26602133D01*
X44738800Y-26654990D01*
X45738800Y-26654990D01*
X45982640Y-26609108D01*
X46117375Y-26522409D01*
X46345016Y-26616700D01*
X46707400Y-26616700D01*
X46871900Y-26452200D01*
X46871900Y-25262700D01*
X46851900Y-25262700D01*
X46851900Y-25054700D01*
X46871900Y-25054700D01*
X46871900Y-25034700D01*
X47079900Y-25034700D01*
X47079900Y-25054700D01*
X47099900Y-25054700D01*
X47099900Y-25262700D01*
X47079900Y-25262700D01*
X47079900Y-26452200D01*
X47244400Y-26616700D01*
X47606784Y-26616700D01*
X47848627Y-26516526D01*
X48033725Y-26331427D01*
X48095733Y-26181729D01*
X48172468Y-26213592D01*
X48611070Y-26213975D01*
X48835588Y-26121206D01*
X48850892Y-26202540D01*
X48995001Y-26426492D01*
X49214886Y-26576733D01*
X49475900Y-26629590D01*
X50475900Y-26629590D01*
X50719740Y-26583708D01*
X50858215Y-26494602D01*
X50986198Y-26494602D01*
X50821700Y-26659100D01*
X50821700Y-27321485D01*
X50921875Y-27563327D01*
X51106973Y-27748426D01*
X51348816Y-27848600D01*
X51711200Y-27848600D01*
X51875700Y-27684100D01*
X51875700Y-26494600D01*
X51855700Y-26494600D01*
X51855700Y-26286600D01*
X51875700Y-26286600D01*
X51875700Y-25097100D01*
X51711200Y-24932600D01*
X51348816Y-24932600D01*
X51146790Y-25016281D01*
X51146790Y-24358700D01*
X51100908Y-24114860D01*
X50956799Y-23890908D01*
X50736914Y-23740667D01*
X50663742Y-23725849D01*
X50787639Y-23602169D01*
X51194257Y-24009498D01*
X51753307Y-24241635D01*
X52358637Y-24242164D01*
X52918091Y-24011002D01*
X53327639Y-23602169D01*
X53734257Y-24009498D01*
M02*
