G04 #@! TF.FileFunction,Soldermask,Bot*
%FSLAX46Y46*%
G04 Gerber Fmt 4.6, Leading zero omitted, Abs format (unit mm)*
G04 Created by KiCad (PCBNEW 4.0.4+dfsg1-stable) date Sat Feb  4 10:26:13 2017*
%MOMM*%
%LPD*%
G01*
G04 APERTURE LIST*
%ADD10C,0.100000*%
%ADD11R,2.000000X2.700000*%
%ADD12O,2.127200X2.432000*%
%ADD13C,2.127200*%
%ADD14R,1.598880X1.598880*%
%ADD15C,1.299160*%
%ADD16R,0.857200X1.670000*%
%ADD17R,2.127200X2.025600*%
G04 APERTURE END LIST*
D10*
D11*
X33274000Y-30528000D03*
X33274000Y-36528000D03*
D12*
X36817300Y-22720300D03*
D13*
X39357300Y-22720300D03*
X41897300Y-22720300D03*
X44437300Y-22720300D03*
X46977300Y-22720300D03*
X49517300Y-22720300D03*
X52057300Y-22720300D03*
X54597300Y-22720300D03*
X31864300Y-44323000D03*
X34404300Y-44323000D03*
X36944300Y-44323000D03*
X39484300Y-44323000D03*
X42024300Y-44323000D03*
X44564300Y-44323000D03*
X47104300Y-44323000D03*
D12*
X49644300Y-44323000D03*
D13*
X52184300Y-44323000D03*
X54724300Y-44323000D03*
D14*
X32151960Y-28000000D03*
X34250000Y-28000000D03*
X34299020Y-39150000D03*
X32200980Y-39150000D03*
D15*
X50924460Y-35709860D03*
X50924460Y-31310580D03*
D16*
X52197000Y-39370000D03*
X50927000Y-39370000D03*
X49657000Y-39370000D03*
X48387000Y-39370000D03*
X47117000Y-39370000D03*
X42037000Y-39370000D03*
X40767000Y-39370000D03*
X39497000Y-39370000D03*
X38227000Y-39370000D03*
X36957000Y-39370000D03*
X36957000Y-27686000D03*
X38227000Y-27686000D03*
X39497000Y-27686000D03*
X40767000Y-27686000D03*
X42037000Y-27686000D03*
X47117000Y-27686000D03*
X48387000Y-27686000D03*
X49657000Y-27686000D03*
X50927000Y-27686000D03*
X52197000Y-27686000D03*
X53467000Y-27686000D03*
X43307000Y-27686000D03*
X44577000Y-27686000D03*
X45847000Y-27686000D03*
X43307000Y-39370000D03*
X44577000Y-39370000D03*
X45847000Y-39370000D03*
X53467000Y-39370000D03*
D17*
X32639000Y-25273000D03*
D13*
X32639000Y-22733000D03*
M02*
