G04 #@! TF.FileFunction,Soldermask,Top*
%FSLAX46Y46*%
G04 Gerber Fmt 4.6, Leading zero omitted, Abs format (unit mm)*
G04 Created by KiCad (PCBNEW 4.0.4+dfsg1-stable) date Sat Feb  4 10:26:13 2017*
%MOMM*%
%LPD*%
G01*
G04 APERTURE LIST*
%ADD10C,0.100000*%
%ADD11O,2.127200X2.432000*%
%ADD12C,2.127200*%
%ADD13R,2.800000X2.400000*%
%ADD14R,1.400000X2.000000*%
%ADD15R,2.701240X0.900380*%
%ADD16R,2.645360X2.398980*%
%ADD17R,2.899360X2.398980*%
%ADD18C,1.299160*%
%ADD19R,1.300000X2.100000*%
%ADD20R,2.127200X2.025600*%
%ADD21R,2.000200X3.999180*%
G04 APERTURE END LIST*
D10*
D11*
X36817300Y-22720300D03*
D12*
X39357300Y-22720300D03*
X41897300Y-22720300D03*
X44437300Y-22720300D03*
X46977300Y-22720300D03*
X49517300Y-22720300D03*
X52057300Y-22720300D03*
X54597300Y-22720300D03*
X31864300Y-44323000D03*
X34404300Y-44323000D03*
X36944300Y-44323000D03*
X39484300Y-44323000D03*
X42024300Y-44323000D03*
X44564300Y-44323000D03*
X47104300Y-44323000D03*
D11*
X49644300Y-44323000D03*
D12*
X52184300Y-44323000D03*
X54724300Y-44323000D03*
D13*
X44640500Y-35260500D03*
X44640500Y-31160500D03*
D14*
X45238800Y-25184100D03*
X42238800Y-25184100D03*
X46975900Y-25158700D03*
X49975900Y-25158700D03*
X54979700Y-26390600D03*
X51979700Y-26390600D03*
X35608000Y-41402000D03*
X38608000Y-41402000D03*
D15*
X48326040Y-35110420D03*
X48326040Y-34310320D03*
X48326040Y-33510220D03*
X48326040Y-32710120D03*
X48326040Y-31910020D03*
D16*
X48425100Y-37960300D03*
D17*
X53924200Y-37960300D03*
X48425100Y-29060140D03*
X53924200Y-29060140D03*
D18*
X50924460Y-35709860D03*
X50924460Y-31310580D03*
D19*
X31757960Y-33197800D03*
X34657960Y-33197800D03*
X31773200Y-29641800D03*
X34673200Y-29641800D03*
X31773200Y-37084000D03*
X34673200Y-37084000D03*
D20*
X32639000Y-25273000D03*
D12*
X32639000Y-22733000D03*
D21*
X39166800Y-36017200D03*
X39166800Y-30515560D03*
M02*
